<svg xmlns="http://www.w3.org/2000/svg" viewBox="0 0 1200 675" role="img" aria-labelledby="title desc">
  <title id="title">Pizza Tracker thumbnail</title>
  <desc id="desc">Stylized dashboard illustration for the Pizza Tracker project.</desc>
  <defs>
    <linearGradient id="bg" x1="0" y1="0" x2="1" y2="1">
      <stop offset="0%" stop-color="#fff4e6" />
      <stop offset="100%" stop-color="#ffd7a8" />
    </linearGradient>
    <linearGradient id="panel" x1="0" y1="0" x2="1" y2="1">
      <stop offset="0%" stop-color="#ffffff" />
      <stop offset="100%" stop-color="#fff0dc" />
    </linearGradient>
  </defs>
  <rect width="1200" height="675" rx="36" fill="url(#bg)" />
  <circle cx="143" cy="110" r="78" fill="#ffb86b" opacity="0.4" />
  <circle cx="1080" cy="560" r="112" fill="#ff8b5e" opacity="0.18" />
  <rect x="76" y="74" width="1048" height="527" rx="28" fill="#1f2937" opacity="0.08" />
  <rect x="64" y="60" width="1048" height="527" rx="28" fill="url(#panel)" stroke="#f0b36a" stroke-width="2" />
  <rect x="104" y="110" width="330" height="430" rx="24" fill="#fffaf4" stroke="#f3d4a8" stroke-width="2" />
  <rect x="468" y="110" width="604" height="430" rx="24" fill="#ffffff" stroke="#f3d4a8" stroke-width="2" />
  <text x="128" y="158" font-family="Arial, Helvetica, sans-serif" font-size="42" font-weight="700" fill="#9a3412">Pizza Tracker</text>
  <text x="128" y="194" font-family="Arial, Helvetica, sans-serif" font-size="22" fill="#7c2d12">Real-time order flow</text>
  <rect x="128" y="235" width="282" height="98" rx="18" fill="#ffe1bf" />
  <text x="152" y="276" font-family="Arial, Helvetica, sans-serif" font-size="22" font-weight="700" fill="#9a3412">Order #PZ-204</text>
  <text x="152" y="306" font-family="Arial, Helvetica, sans-serif" font-size="18" fill="#7c2d12">Large Pepperoni x2</text>
  <rect x="152" y="355" width="230" height="16" rx="8" fill="#fed7aa" />
  <rect x="152" y="355" width="168" height="16" rx="8" fill="#f97316" />
  <text x="152" y="402" font-family="Arial, Helvetica, sans-serif" font-size="18" fill="#7c2d12">Preparing</text>
  <circle cx="154" cy="455" r="12" fill="#f97316" />
  <circle cx="222" cy="455" r="12" fill="#f97316" />
  <circle cx="290" cy="455" r="12" fill="#f97316" />
  <circle cx="358" cy="455" r="12" fill="#fdba74" />
  <text x="128" y="505" font-family="Arial, Helvetica, sans-serif" font-size="16" fill="#7c2d12">Customer page updates instantly</text>
  <text x="500" y="158" font-family="Arial, Helvetica, sans-serif" font-size="30" font-weight="700" fill="#111827">Admin Dashboard</text>
  <rect x="500" y="204" width="540" height="74" rx="16" fill="#fff7ed" stroke="#fed7aa" />
  <text x="526" y="248" font-family="Arial, Helvetica, sans-serif" font-size="22" font-weight="700" fill="#7c2d12">New order received</text>
  <circle cx="1004" cy="241" r="18" fill="#16a34a" />
  <rect x="500" y="304" width="540" height="42" rx="14" fill="#f3f4f6" />
  <rect x="500" y="366" width="540" height="42" rx="14" fill="#f3f4f6" />
  <rect x="500" y="428" width="540" height="42" rx="14" fill="#f3f4f6" />
  <rect x="522" y="317" width="160" height="16" rx="8" fill="#9ca3af" />
  <rect x="710" y="313" width="122" height="24" rx="12" fill="#fde68a" />
  <rect x="874" y="309" width="142" height="32" rx="10" fill="#f97316" />
  <rect x="522" y="379" width="184" height="16" rx="8" fill="#9ca3af" />
  <rect x="738" y="375" width="118" height="24" rx="12" fill="#fdba74" />
  <rect x="874" y="371" width="142" height="32" rx="10" fill="#fb923c" />
  <rect x="522" y="441" width="172" height="16" rx="8" fill="#9ca3af" />
  <rect x="720" y="437" width="132" height="24" rx="12" fill="#bbf7d0" />
  <rect x="874" y="433" width="142" height="32" rx="10" fill="#22c55e" />
  <text x="909" y="331" font-family="Arial, Helvetica, sans-serif" font-size="16" font-weight="700" fill="#ffffff">Update</text>
  <text x="909" y="393" font-family="Arial, Helvetica, sans-serif" font-size="16" font-weight="700" fill="#ffffff">Update</text>
  <text x="909" y="455" font-family="Arial, Helvetica, sans-serif" font-size="16" font-weight="700" fill="#ffffff">Update</text>
  <text x="500" y="510" font-family="Arial, Helvetica, sans-serif" font-size="18" fill="#4b5563">Go • Gin • GORM • SQLite • SSE</text>
</svg>