<svg xmlns="http://www.w3.org/2000/svg" viewBox="0 0 1200 675" role="img" aria-labelledby="title desc">
  <title id="title">Web Code Editor thumbnail</title>
  <desc id="desc">Stylized browser window showing HTML, CSS, and JavaScript panes with a preview panel.</desc>
  <defs>
    <linearGradient id="bg" x1="0" y1="0" x2="1" y2="1">
      <stop offset="0%" stop-color="#0f172a" />
      <stop offset="100%" stop-color="#1e293b" />
    </linearGradient>
    <linearGradient id="accent" x1="0" y1="0" x2="1" y2="0">
      <stop offset="0%" stop-color="#60a5fa" />
      <stop offset="100%" stop-color="#a78bfa" />
    </linearGradient>
  </defs>
  <rect width="1200" height="675" rx="36" fill="url(#bg)" />
  <circle cx="110" cy="82" r="12" fill="#f87171" />
  <circle cx="146" cy="82" r="12" fill="#fbbf24" />
  <circle cx="182" cy="82" r="12" fill="#34d399" />
  <rect x="72" y="120" width="1056" height="483" rx="24" fill="#020617" stroke="#334155" />
  <rect x="96" y="152" width="260" height="419" rx="18" fill="#111827" stroke="#1f2937" />
  <rect x="384" y="152" width="420" height="419" rx="18" fill="#111827" stroke="#1f2937" />
  <rect x="832" y="152" width="272" height="419" rx="18" fill="#111827" stroke="#1f2937" />
  <rect x="410" y="182" width="118" height="34" rx="17" fill="#1e293b" />
  <rect x="536" y="182" width="100" height="34" rx="17" fill="url(#accent)" />
  <rect x="644" y="182" width="126" height="34" rx="17" fill="#1e293b" />
  <rect x="858" y="184" width="220" height="192" rx="14" fill="#f8fafc" />
  <rect x="858" y="398" width="220" height="145" rx="14" fill="#0f172a" />
  <rect x="120" y="186" width="212" height="18" rx="9" fill="#334155" />
  <rect x="120" y="222" width="164" height="12" rx="6" fill="#1d4ed8" opacity="0.95" />
  <rect x="120" y="248" width="194" height="12" rx="6" fill="#475569" />
  <rect x="120" y="274" width="176" height="12" rx="6" fill="#475569" />
  <rect x="120" y="320" width="164" height="12" rx="6" fill="#0ea5e9" />
  <rect x="120" y="346" width="188" height="12" rx="6" fill="#475569" />
  <rect x="120" y="392" width="148" height="12" rx="6" fill="#8b5cf6" />
  <rect x="120" y="418" width="168" height="12" rx="6" fill="#475569" />
  <rect x="120" y="444" width="140" height="12" rx="6" fill="#475569" />
  <rect x="120" y="490" width="156" height="12" rx="6" fill="#22c55e" />
  <rect x="120" y="516" width="120" height="12" rx="6" fill="#475569" />
  <rect x="414" y="244" width="326" height="14" rx="7" fill="#60a5fa" opacity="0.9" />
  <rect x="414" y="272" width="278" height="14" rx="7" fill="#475569" />
  <rect x="414" y="300" width="302" height="14" rx="7" fill="#475569" />
  <rect x="414" y="350" width="248" height="14" rx="7" fill="#34d399" />
  <rect x="414" y="378" width="290" height="14" rx="7" fill="#475569" />
  <rect x="414" y="428" width="214" height="14" rx="7" fill="#f59e0b" />
  <rect x="414" y="456" width="332" height="14" rx="7" fill="#475569" />
  <rect x="414" y="484" width="188" height="14" rx="7" fill="#475569" />
  <rect x="876" y="420" width="164" height="12" rx="6" fill="#22c55e" />
  <rect x="876" y="448" width="140" height="12" rx="6" fill="#f59e0b" />
  <rect x="876" y="476" width="172" height="12" rx="6" fill="#ef4444" />
  <text x="96" y="100" fill="#e2e8f0" font-family="Arial, sans-serif" font-size="28" font-weight="700">Web Code Editor</text>
</svg>